<svg width="320" height="512" viewBox="0 0 320 512" fill="none" xmlns="http://www.w3.org/2000/svg">
<path d="M160 352C213.02 352 256 309.02 256 256V96C256 42.98 213.02 0 160 0C106.98 0 64 42.98 64 96V256C64 309.02 106.98 352 160 352ZM96 96C96 60.71 124.71 32 160 32C195.29 32 224 60.71 224 96V256C224 291.29 195.29 320 160 320C124.71 320 96 291.29 96 256V96ZM312 192H296C291.58 192 288 195.58 288 200V256C288 329.46 225.8 388.68 151.27 383.71C83.3 379.18 32 319.61 32 251.49V200C32 195.58 28.42 192 24 192H8C3.58 192 0 195.58 0 200V250.34C0 333.73 61.65 406.46 144 414.77V480H72C67.58 480 64 483.58 64 488V504C64 508.42 67.58 512 72 512H248C252.42 512 256 508.42 256 504V488C256 483.58 252.42 480 248 480H176V414.99C256.71 406.9 320 338.8 320 256V200C320 195.58 316.42 192 312 192Z" fill="#0000FF"/>
</svg>
