<svg width="320" height="512" viewBox="0 0 320 512" fill="none" xmlns="http://www.w3.org/2000/svg">
<g clip-path="url(#clip0_171_127)">
<mask id="mask0_171_127" style="mask-type:luminance" maskUnits="userSpaceOnUse" x="0" y="0" width="320" height="512">
<path d="M320 0H0V512H320V0Z" fill="white"/>
</mask>
<g mask="url(#mask0_171_127)">
<mask id="mask1_171_127" style="mask-type:luminance" maskUnits="userSpaceOnUse" x="0" y="0" width="320" height="512">
<path d="M320 0H0V512H320V0Z" fill="white"/>
</mask>
<g mask="url(#mask1_171_127)">
<path d="M160 352C213.02 352 256 309.02 256 256V96C256 42.98 213.02 0 160 0C106.98 0 64 42.98 64 96V256C64 309.02 106.98 352 160 352ZM312 192H296C291.58 192 288 195.58 288 200V256C288 329.46 225.8 388.68 151.27 383.71C83.3 379.18 32 319.61 32 251.49V200C32 195.58 28.42 192 24 192H8C3.58 192 0 195.58 0 200V250.34C0 333.73 61.65 406.46 144 414.77V480H72C67.58 480 64 483.58 64 488V504C64 508.42 67.58 512 72 512H248C252.42 512 256 508.42 256 504V488C256 483.58 252.42 480 248 480H176V414.99C256.71 406.9 320 338.8 320 256V200C320 195.58 316.42 192 312 192Z" fill="#DCA9E9"/>
</g>
</g>
</g>
<defs>
<clipPath id="clip0_171_127">
<rect width="320" height="512" fill="white"/>
</clipPath>
</defs>
</svg>
